<?xml version="1.0" standalone="no"?><!DOCTYPE svg PUBLIC "-//W3C//DTD SVG 1.1//EN" "http://www.w3.org/Graphics/SVG/1.1/DTD/svg11.dtd"><svg t="1722247123036" class="icon" viewBox="0 0 1024 1024" version="1.1" xmlns="http://www.w3.org/2000/svg" p-id="2153" xmlns:xlink="http://www.w3.org/1999/xlink" width="200" height="200"><path d="M428.9776671209653 430.71927464206647s7.980314421065289 1.2867031475938349 15.264204814827742 7.1303448985048785c6.776663586209722 5.4360777186442295 18.22491848063875 8.496859292974019 19.80169702296721 8.900777126145007-1.0962905281451247-0.291290794433239-6.944793877850604-2.070230819963632-10.507130394472956-8.013130212927727-3.94397202198551-6.576527769172141 23.20805724493477-23.432906189177398 23.20805724493477-23.432906189177398s-9.230960710933731 5.21649550642891-22.559438939110546 9.62272454711863c-13.326857695245343 4.402177708361025-25.207389749146223 5.792189830336606-25.207389749146223 5.792189830336606z" fill="" p-id="2154"></path><path d="M401.02625 417.07427083333334c0.27375 0.07125 0.46125 0.1153125 0.46125 0.1153125s-0.18-0.043125-0.46125-0.1153125zM383.87468750000005 237.06770833333334c-45.331875-62.268750000000004-61.5028125-101.94375-13.790625-186.778125-113.92125 68.859375-100.59562500000001 132.63187499999998-46.9425 231.0121875 28.846875 6.523125 51.305625-14.94 60.733124999999994-44.2340625zM473.15375 338.1705208333334c19.57875 19.070625 62.465624999999996 3.1978125 88.20375-21.5915625-78.1425-81.1078125-98.3671875-169.5571875-38.491875-244.7634375-117.6384375 69.495-131.8321875 186.3665625-49.711875000000006 266.355z" fill="" p-id="2155"></path><path d="M550.085 266.7377083333334c4.558125 15.421875 15.39375 28.935000000000002 27.7228125 42.0046875 80.72625000000001-30.1265625 209.26875-10.370624999999999 295.81875 43.721250000000005-83.7121875-87.136875-242.330625-122.86968750000001-323.5415625-85.725z" fill="" p-id="2156"></path><path d="M542.9065625 258.94145833333334c50.9484375-28.576875 202.38562499999998-24.2971875 284.3690625 0.9328125-47.900625-40.823437500000004-246.21468750000003-72.6815625-304.828125-48.2503125 3.0412500000000002 17.608125 10.033125 34.6359375 20.4590625 47.3175zM264.1840625 580.1092708333332c1.843125 9.028125000000001-2.4590625000000004 18.392812499999998-9.9403125 27.915 0 0 61.909687500000004-35.281875 129.7434375-13.24875 67.8525 22.035 58.635937500000004 77.25937499999999 58.635937500000004 77.25937499999999 33.036562499999995-15.095625 50.0840625-50.636250000000004 62.60718750000001-91.965 9.0778125 12.9703125 11.9175 28.103437500000002 8.1253125 45.529687499999994 25.4465625-22.14375 31.640625-59.0128125 26.116875-104.85187499999999 13.9621875 10.544062499999999 20.191875 24.7040625 21.830625 40.9940625 14.371875-30.095625 6.2315625-63.60093749999999-8.2753125-98.0775 0 0 60.0196875-0.11249999999999999 129.4246875 45.096562500000005 69.406875 45.204375000000006 97.74375 94.28156249999999 97.74375 94.28156249999999s4.9828125000000005-48.815625-23.409374999999997-88.16624999999999c-28.3884375-39.3534375-85.5721875-73.9903125-85.5721875-73.9903125s120.00187500000001 33.489375 161.9428125 109.48593749999999c41.951249999999995 75.9909375-22.6846875 125.8190625-22.6846875 125.8190625 52.137187499999996-2.994375 84.705-135.66187499999998 39.7678125-180.61781249999999 53.918437499999996 42.1171875 57.6609375 127.54781249999999 63.25781249999999 166.8215625 17.685000000000002-10.685625 37.25625-164.750625-60.525000000000006-225.3075-97.78875000000001-60.5671875-201.226875-66.1584375-201.226875-66.1584375s65.01843749999999-24.9375 154.681875 14.0953125c89.671875 39.034687500000004 120.744375 90.766875 120.744375 90.766875s-25.131562499999998-88.130625-129.474375-135.05156250000002c-104.31937500000001-46.918124999999996-196.23000000000002-28.439999999999998-218.7515625-12.75-22.5196875 15.6871875-64.1146875 47.0709375-110.5575 26.1-46.438125-20.966250000000002-62.218125-105.81562500000001-62.218125-105.81562500000001s-17.791875 51.4903125-62.199375 59.9025c-44.401875000000004 8.413125-75.94125000000001-7.570312499999999-78.500625 2.5659375-2.5612500000000002 10.130624999999998 36.3225 42.0534375 29.29875 61.487812500000004-7.0228125 19.4390625-45.1078125 29.105625-96.4284375 25.509375000000002-51.326249999999995-3.5971875-82.7475-15.02625-87.9309375-9.0328125-5.1778125 5.98875 3.0534375000000002 20.075625000000002-1.3415625 43.6528125-4.3968750000000005 23.580937499999997-18.5203125 31.147499999999997-17.565937499999997 36.58875 0.9253125 5.27625 15.2925 21.7153125 15.992812500000001 33.9553125 29.038125-8.58375 56.0184375-23.384062500000002 80.1459375-46.8403125 9.166875000000001 15.534375 10.5815625 39.133125 6.23625 68.7 29.1140625-11.8275 52.9640625-27.4790625 69.4134375-48.5146875 2.61375 16.775624999999998 0.73875 34.591875-6.10875 53.58 33.3834375-11.416875000000001 57.928125-26.0203125 72.03937499999999-44.371874999999996 3.7734375000000004 12.95625 4.021875 26.05875 0.7340625000000001 39.309375 26.354999999999997-16.6734375 57.5465625-19.868437500000002 92.0221875-13.925625-50.925 4.9125000000000005-85.53468749999999 23.3896875-113.75999999999999 47.199374999999996 1.0190625-12.629999999999999 0.14625-24.05625-3.418125-33.729375000000005-18.49875 18.66375-41.128125 29.566875-65.311875 37.5515625 2.8903125000000003-12.673125 3.4228125-25.996875-4.246875-41.5846875-17.210625 16.3378125-37.267500000000005 28.971562499999997-60.6028125 37.3490625 0.8334375-22.7315625 0.5399999999999999-44.907187500000006-9.20625-62.491875-11.2734375 15.726562499999998-27.393749999999997 26.01375-47.5546875 31.785937500000003 0 0 21.9496875 21.553124999999998 18.9215625 49.477500000000006-3.0253125 27.9234375-45.989999999999995 54.95625-45.989999999999995 54.95625 49.103437500000005-6.635625 87.01875-23.128125 110.48531249999999-52.378125 2.4656249999999997 14.995312499999999-1.719375 28.7953125-13.98375 41.14875 31.912499999999998-5.878125 58.0959375-18.5465625 76.873125-40.0153125z m112.528125-181.5778125c8.2425 13.7521875 21.7771875 17.86875 24.3140625 18.543750000000003l0.46125 0.114375s-0.1875-0.043125-0.46125-0.1153125c-3.6487499999999997-0.9346875-30.140625-8.016562500000001-45.822187500000005-20.5978125-16.85625-13.522499999999999-35.3221875-16.4990625-35.3221875-16.4990625s27.493125-3.215625 58.332187499999996-13.4034375c30.8428125-10.19625 52.20375-22.2675 52.20375-22.2675s-62.83125 39.0065625-53.705625 54.225z" fill="" p-id="2157"></path><path d="M933.5609374999999 687.5552083333332c-164.2078125-11.2378125-116.58 89.36625-190.52625 103.839375-80.521875 15.7621875-128.325-4.7971875-128.325-4.7971875s173.84625-1.5496875 153.0028125-125.855625C746.8690625 536.4452083333333 576.21875 476.86333333333346 576.21875 476.86333333333346c14.89125 40.5215625 9.384375 74.9484375-15.51 103.5759375 38.7571875 13.681875 57.419999999999995 32.776875000000004 61.814062500000006 55.715625 11.1159375-16.4175 14.227500000000001-35.15625 3.63-57.8728125 40.971562500000005 40.5375 40.531875 73.6003125 0.5287499999999999 99.519375 50.6503125-6.20625 75.2746875-30.325312500000003 67.90875000000001-76.4671875 0 0 26.302500000000002 35.35125 3.5456250000000002 70.18875-22.764375 34.8309375-117.6628125 33.362812500000004-117.6628125 33.362812500000004 43.4296875 12.388125 85.33125 16.100625 124.425 3.9009374999999995 0 0-5.443125 27.05625-78.781875 38.339062500000004-73.34625 11.281875000000001-237.60750000000002-42.759375-350.8546875 4.48125-113.24625 47.2340625-149.3334375 139.734375-149.3334375 139.734375s69-62.5415625 119.713125-86.4346875c50.7225-23.8875 137.3625-19.8825 137.3625-19.8825-59.89125 9.481875-98.3146875 45.018750000000004-114.204375 84.06468749999999 0 0 56.595-37.434375 121.52531250000001-49.003125000000004 64.92562500000001-11.581875 145.3434375 7.4925 145.3434375 7.4925-47.068125 0.585-109.14 20.2603125-136.0378125 54.463125 21.1875-7.1859375 105.2690625-25.5403125 196.15875-9.902812500000001 78.448125 13.494375 116.49656250000001 17.398125 160.7775 17.278125 89.22-0.24656250000000002 164.0296875-164.7346875 143.544375-136.4859375-79.3096875 109.36687500000001-187.396875 87.365625-187.396875 87.365625s70.2890625-6.845625 86.645625-18.8165625c67.17937500000001-49.162499999999994-8.390625-117.170625 134.20125-133.9246875z" fill="" p-id="2158"></path></svg>