<?xml version="1.0" standalone="no"?><!DOCTYPE svg PUBLIC "-//W3C//DTD SVG 1.1//EN" "http://www.w3.org/Graphics/SVG/1.1/DTD/svg11.dtd"><svg t="1722246928728" class="icon" viewBox="0 0 1024 1024" version="1.1" xmlns="http://www.w3.org/2000/svg" p-id="1668" xmlns:xlink="http://www.w3.org/1999/xlink" width="200" height="200"><path d="M869.644934 825.334462c-2.890206 0-5.780412-0.090319-8.670618 0.018064-4.371437 0.162574-8.453853-0.14451-12.500142-2.420547-3.377928-1.896698-7.496472-2.00508-11.39825-2.203783-2.745696-0.14451-5.491391-0.252893-8.219023-0.469658-2.023144-0.162574-4.226926-0.361276-5.780412-1.625741-2.691504-2.203782-5.744285-2.420548-8.941575-2.52893-2.492803-0.090319-4.877223-0.578041-6.810048-2.348293-0.415467-0.37934-0.921253-0.81287-1.445103-0.939317-5.256562-1.156082-9.826701-4.136607-14.956816-5.635901-2.673441-0.776743-4.949478-2.294101-7.424217-3.377929-7.749365-3.450183-13.565905-9.971211-21.766864-12.825289-3.395992-1.174146-6.755857-3.504375-9.77251-6.10556-4.534011-3.919842-9.049958-7.948067-14.396838-10.946656-4.76884-2.691504-8.417725-6.954558-12.283376-10.856336-8.34547-8.399661-16.83545-16.654812-25.054474-25.18092-6.304262-6.539091-12.301439-13.349139-17.268981-21.044313-2.872142-4.461756-6.593283-8.381598-9.844764-12.608524-4.479819-5.834603-8.417725-12.048546-12.211121-18.370872-8.146768-13.602032-19.003105-24.946091-30.112334-36.05532-7.243579-7.243579-14.505222-14.487158-21.766864-21.730737-5.527519-5.509455-10.314423-11.687271-15.336156-17.630257-3.648885-4.317245-7.586791-5.039797-11.849845-1.300592-2.655377 2.330229-5.979114 3.43212-8.851256 5.364944-4.588202 3.070844-8.002258 7.062941-10.639571 11.723399-4.3895 7.785493-7.67711 16.076771-11.217612 24.27773-2.673441 6.213943-5.888795 12.193057-8.417725 18.461192-1.625741 4.010161-3.901778 7.695174-5.310753 11.795653-0.975445 2.836015-2.619249 5.455264-4.010161 8.110641-5.14818 9.808637-10.639571 19.436636-16.69094 28.739486-6.177815 9.501552-13.854925 17.630257-22.164268 25.307367-12.301439 11.380186-25.03641 22.236523-37.825571 33.00254-5.075924 4.281118-10.58538 7.984194-15.914197 11.9221-4.534011 3.341801-8.851256 6.936494-14.30652 8.760937-0.650296 0.216765-1.427039 0.650296-1.752188 1.210274-1.643805 2.781823-4.407564 3.974033-7.026813 5.491391-3.233418 1.878634-6.394581 3.829523-9.104149 6.521027-2.510866 2.492803-7.731301 2.565058-10.549252 0.650297-2.76376-1.86057-3.161163-7.315834-0.650296-10.621507 1.119955-1.481231 2.38442-2.944397 3.811459-4.136608 8.670618-7.189388 16.672876-15.11939 24.982218-22.706181 7.875811-7.189388 15.534857-14.595541 22.904883-22.344905 11.958227-12.536269 23.230031-25.668642 34.104431-39.108101 4.642393-5.744285 9.754445-11.289867 13.023991-18.190234 1.318657-2.76376 3.630821-5.130116 5.419137-7.731301 1.246401-1.788315 2.637313-3.540502 3.3418-5.545583 1.57155-4.606266 5.509455-7.82162 7.189388-12.156929 2.23991-5.780412 7.460344-10.025402 8.128704-16.528366 0.090319-0.81287 0.632233-1.607677 1.011572-2.366356 0.198702-0.37934 0.632233-0.66836 0.740616-1.0477 1.770251-5.708157 5.274626-10.802145 5.888795-16.889642 0.505786-5.112052 3.19729-9.53768 4.317245-14.469094 0.487722-2.113463 1.065763-4.154671 1.029636-6.358453-0.090319-9.104149 0.234829-18.190234 1.083827-27.258256 0.126447-1.282529 0.234829-2.619249 0.614169-3.847586 1.228338-3.974033-0.180638-7.424217-2.0954-10.693763-2.023144-3.43212-5.29269-6.087496-5.96105-10.368614-0.234829-1.499294-1.86057-2.113463-3.377928-2.294101-2.095399-0.252893-4.136607 0.054191-5.780412 1.354784-3.685013 2.890206-8.038386 3.811459-12.427886 4.696585-4.24499 0.867062-8.544172 1.390912-12.464013 3.468247-1.806379 0.939317-3.919842 0.993508-5.942987 0.90319-5.798476-0.270957-11.54276 0.307084-17.268981 1.138018-4.190799 0.614169-7.785493-0.614169-10.567316-3.72114-3.395992-3.775332-7.099069-7.15326-11.289867-10.06153-3.233418-2.23991-3.305673-2.817951-1.679932-6.4849 0.957381-2.131527 1.372848-4.407564 2.059272-6.593282 0.776743-2.474739 1.71606-2.980525 4.208862-2.438611 1.264465 0.270957 2.637313 0.52385 3.685013 1.210273 6.033305 3.829523 12.73497 4.10048 19.545018 4.028225 1.390912-0.018064 2.637313-0.198702 3.504375-1.282529 3.666949-4.588202 9.212532-6.394581 14.017499-9.194468 5.238498-3.05278 10.440869-6.10556 15.101327-9.953147 6.557155-5.401073 12.951736-11.018911 19.472763-16.474174 2.312165-1.932825 4.841095-3.630821 7.207451-5.509456 4.515947-3.558566 7.406153-8.309342 10.151849-13.276884 2.76376-4.985605 4.317245-10.422806 5.834604-15.769686 1.697996-5.924922 2.546994-12.174993 3.05278-18.352809 0.885126-10.531188 0.867062-21.08044-1.336721-31.503246-0.921253-4.3895-1.119955-8.887384-1.047699-13.367203 0.036128-2.673441-0.451595-5.130116-2.0954-7.351961-0.66836-0.903189-1.119955-2.023144-1.463166-3.125035-0.993508-3.251482-2.76376-5.997178-5.075925-8.453853-5.166243-5.419136-9.844764-11.344059-16.799322-14.740051-0.758679-0.361276-1.282529-1.156082-1.987017-1.661868-1.156082-0.848998-2.276037-2.023144-3.594694-2.366357-8.381598-2.077336-16.112899-6.304262-24.765453-7.514535-2.257973-0.307084-5.039797-0.252893-5.617838-3.106972-0.596105-2.890206 0.090319-5.653966 2.348293-7.948066 2.691504-2.727632 6.051369-4.443692 9.194468-6.430709 10.8744-6.882303 20.79142-15.029071 31.015523-22.778436 8.616427-6.539091 17.196726-13.11431 25.921536-19.508891 15.462602-11.325995 31.575501-21.712673 46.875529-33.273497 3.883714-2.944397 7.96613-5.690093 11.958227-8.508044 3.341801-2.366356 5.274626-5.29269 4.841095-9.483489-0.307084-2.980525 0.307084-5.708157 1.770252-8.327406 1.33672-2.38442 2.402484-4.931414 3.648885-7.351961 1.427039-2.76376 4.461756-3.486311 6.77392-5.075925 0.722552-0.487722 1.950889-0.162574 2.890206 0.361276 9.429297 5.310754 18.569574 11.055038 26.933108 17.937341 4.353373 3.57663 8.580299 7.243579 12.35563 11.470506 3.757268 4.208863 4.263054 8.760937 2.510867 13.692351-2.185718 6.141688-5.112052 11.9221-10.115721 16.383855-0.758679 0.686424-1.499294 1.33672-2.492803 1.661869-7.135196 2.330229-14.252329 4.714649-21.495907 6.665537-6.123624 1.643805-12.193057 3.558566-18.208298 5.617838-5.58171 1.914762-11.235676 3.666949-16.925769 5.220435-3.919842 1.065763-7.67711 2.601185-11.380187 4.10048-8.526108 3.43212-17.142535 6.62941-25.054473 11.615015-3.811459 2.38442-6.376517 5.690093-9.555744 8.489981-0.993508 0.885126-1.589613 2.095399-1.589613 3.450183-0.018064 4.172735-0.343212 8.291279 1.770251 12.265312 1.950889 3.685013 2.926334 7.875811 3.955969 11.867908 2.294101 8.815128 5.220435 17.431555 8.074513 26.047982 3.414056 10.296359 5.726221 20.863675 8.833193 31.214226 0.541914 1.788315 0.722552 3.685013 0.95738 5.545582 0.37934 3.161163 1.083827 6.213943 2.312165 9.194468 1.71606 4.172735 2.131527 8.670618 2.312165 13.168502 0.054191 1.300593 0 2.619249 0.234829 3.883714 0.559977 2.998589 2.312165 5.003669 5.4372 5.364945 9.140277 1.065763 18.009596 0.903189 26.644087-3.269546 6.593283-3.179227 13.674287-5.328817 20.538527-7.948066 11.325995-4.317245 22.760373-8.309342 34.014112-12.807226 11.633079-4.660457 23.500988-8.887384 36.344341-9.031894 3.016653-0.036128 6.051369-0.469658 9.049958-0.939317 3.088908-0.487722 5.834603 0.270957 8.128704 2.167655 3.666949 3.034716 7.135196 6.286198 9.483489 10.58538 3.341801 6.10556 1.499294 11.217612-5.184307 13.060118-6.539091 1.788315-12.843353 4.263054-19.328253 6.123624-5.112052 1.481231-10.296359 2.799887-15.462602 4.118544-9.68219 2.474739-18.985041 6.069433-28.558849 8.779001-6.10556 1.71606-12.211121 3.522439-18.226362 5.563646-4.62433 1.57155-9.140277 3.43212-13.529777 5.653966-14.342647 7.261643-27.077618 16.961897-40.1558 26.156365-4.967542 3.486311-8.995766 8.110641-12.464013 13.150437-0.578041 0.848998-1.029636 1.71606-1.119955 2.76376-0.704488 7.315834-1.842506 14.631668-2.023144 21.965565-0.162574 6.62941 2.149591 12.861417 6.719729 17.774768 6.719729 7.207451 11.904036 15.607113 18.370872 22.977138 8.471916 9.646063 15.733559 20.249506 24.223539 29.913632 8.164832 9.320914 16.203218 18.786339 24.476433 28.034999 10.296359 11.506633 20.881739 22.742309 32.09935 33.399943 6.069433 5.762348 12.373695 11.289867 18.244426 17.21479 4.136607 4.172735 8.742873 7.351962 13.529777 10.513124 1.318657 0.867062 2.348292 2.113463 3.540503 3.179227 1.19221 1.0477 2.257973 2.330229 3.630821 3.070844 7.026813 3.775332 12.987863 9.068021 19.617273 13.421394 6.141688 4.028225 12.283376 8.146768 18.876659 11.307931 4.606266 2.221846 9.284787 4.461756 14.107818 6.358454 4.642393 1.842506 9.555744 3.088908 13.945244 5.130115 6.900367 3.215354 13.818798 3.865651 21.062376 3.685013 5.4372-0.126447 10.657635 0.433531 15.49873 3.161163 0.975445 0.559977 2.149591 0.939317 3.269546 1.029636 2.962461 0.252893 5.617838 1.174146 8.038385 2.90827 1.445103 1.029636 3.19729 1.408975 4.931415 1.48123 3.43212 0.14451 6.448772 1.264465 9.284786 3.161163 2.167655 1.445103 4.534011 2.565058 7.225516 2.655377 0.289021 0.018064 0.596105 0.054191 0.830934 0.216765 4.353373 2.745696 9.519616 3.72114 13.945244 6.286199 0.993508 0.578041 2.00508 1.210274 3.088908 1.517358 3.504375 1.011572 6.77392 2.402484 9.790573 4.497883 2.348292 1.643805 5.184307 2.492803 7.749365 3.775332 4.823031 2.420548 8.851256 5.942986 13.457521 8.63449 4.62433 2.709568 7.604855 7.406153 11.036975 11.488569 1.011572 1.19221 1.679932 2.601185 2.890206 3.72114 2.203782 2.059272 1.806379 4.732712-0.704488 6.448773-2.023144 1.390912-4.154671 2.619249-5.798476 4.497883-1.029636 1.174146-2.456675 1.517358-3.919842 1.571549-2.402484 0.090319-4.407564 0.957381-6.376517 2.312165-2.691504 1.842506-5.906859 2.294101-9.122213 2.348293-5.003669 0.090319-9.772509 0.794807-13.999435 3.757267-1.589613 1.119955-3.486311 1.246401-5.401073 1.228338-4.335309-0.036128-8.670618-0.018064-13.005927-0.018064 0.036128-0.162574 0.036128-0.216765 0.036128-0.270957zM249.569292 673.291561v61.182049c0 1.011572-0.036128 2.041208 0.108382 3.034716 0.578041 3.739204 2.962461 5.924922 6.647474 5.093988 5.545583-1.246401 11.506633-1.950889 15.245837-7.207451 1.372848-1.932825 3.486311-2.998589 5.599774-3.974033 6.448772-2.962461 11.77759-7.225515 15.87807-13.042055 0.740615-1.065763 1.535422-2.113463 2.456675-3.034716 6.719729-6.665538 9.53768-15.263901 11.976291-24.024838 1.0477-3.739204 0.072255-7.803556 1.535422-11.54276 0.415467-1.065763 0.415467-2.38442 1.0477-3.28761 2.492803-3.57663 2.546994-7.550663 2.402484-11.633079-0.180638-5.057861 0.108383-10.115721 0.66836-15.137454 0.14451-1.282529 0.162574-2.745696 0.794806-3.775332 2.817951-4.588202 2.619249-9.700254 2.691505-14.721987 0.559977-41.022862 0.487722-82.063788 0.415467-123.08665-0.018064-4.62433 0.252893-9.212532 0.740615-13.836861 0.722552-6.683601-0.830934-12.951736-5.202371-18.262489-3.937906-4.786904-8.995766-6.77392-15.047135-5.166244-4.064352 1.083827-8.20096 1.643805-12.337567 2.276038-5.310754 0.81287-10.332487 2.601185-15.11939 5.05786-0.903189 0.469658-1.752187 1.029636-2.691505 1.372848-4.967542 1.86057-9.068021 0.505786-11.705334-4.010161-2.998589-5.130116-5.762348-10.332487-5.075925-16.654812 0.234829-2.167655-0.14451-4.371437-1.806378-6.051369-1.770251-1.788315-2.185718-4.010161-2.23991-6.358453 0-0.14451-0.018064-0.289021-0.018064-0.433531 0.108383-8.941575-0.325148-17.720576-2.763759-26.517641-2.52893-9.068021-2.023144-18.623765-1.481231-28.016935 0.252893-4.515947 0.216765-8.923511-1.499294-13.204628a13.419588 13.419588 0 0 1-0.90319-5.96105c0.469658-7.081005-2.131527-13.313012-5.383008-19.328253-2.474739-4.570138-4.931414-9.122213-6.015242-14.30652-3.57663-17.070279 9.646063-30.3291 25.108665-28.2337 4.299181 0.578041 7.948067-0.343212 11.958228-2.276038 10.747954-5.166243 21.026249-11.289867 32.261925-15.516793 7.099069-2.673441 13.565905-6.936494 19.996613-11.036975 5.473328-3.486311 11.235676-6.430708 17.287045-8.779 7.117132-2.76376 14.487158-4.949478 21.459779-8.038386 4.208863-1.86057 8.616427-3.179227 12.753035-5.29269 11.217612-5.690093 22.742309-5.744285 34.357324-0.939317 1.390912 0.578041 2.402484 1.553486 3.468247 2.528931 5.906859 5.401073 10.224104 12.084674 15.047135 18.370872 1.029636 1.354784 1.0477 2.944397 1.029636 4.552074-0.054191 5.346881-0.072255 10.693762-0.108383 16.040644-0.018064 4.335309-1.011572 8.48998-1.878633 12.73497-1.33672 6.521027-3.685013 12.73497-4.895287 19.255998-0.921253 4.949478-3.034716 9.591871-4.154671 14.541349-1.770251 7.875811-3.95597 15.679368-6.232007 23.428733-1.33672 4.552075-2.131527 9.429297-3.955969 13.638159-3.016653 6.990686-3.974033 14.776178-8.399662 21.188823-0.469658 0.686424-0.704488 1.57155-0.903189 2.402484-1.318657 5.96105-4.028225 11.325995-6.864239 16.672876-1.661868 3.125035-4.263054 5.184307-7.207452 6.62941-7.135196 3.504375-13.656224 8.020322-20.430144 12.102738-1.463167 0.885126-2.727632 2.167655-3.86565 3.450184-1.824443 2.059272-2.655377 4.461756-1.57155 7.207451 0.903189 2.312165 1.282529 4.732712 1.481231 7.189387 0.072255 0.867062 0.072255 1.824443 0.487722 2.546995 2.456675 4.263054 1.896698 8.887384 1.896698 13.493649-0.018064 7.514536 0.198702 15.029071 0.307084 22.525543 0.036128 2.348292 0.415467 4.606266 1.788315 6.593283 1.445103 2.095399 1.968953 4.425628 2.059272 6.954558 0.108383 3.179227 0.37934 6.358453 1.372848 9.411234 0.704488 2.167655 0.361276 4.281118-0.198702 6.39458-0.903189 3.377928-1.210274 6.828112-0.993508 10.314423 0.289021 4.606266 2.601185 5.979114 7.135196 5.870731 12.9698-0.325148 23.98871-6.62941 35.657917-11.01891 4.714649-1.770251 9.068021-4.443692 14.017499-5.617838 4.317245-1.029636 6.087496 0.830934 4.76884 5.075924-0.867062 2.76376-2.312165 5.29269-3.937905 7.695174-2.926334 4.335309-5.690093 8.706746-6.105561 14.143945-0.162574 2.149591-1.408975 3.666949-3.233418 4.841096-5.942986 3.811459-11.849845 7.586791-18.190234 10.766017-5.81654 2.90827-10.910528 6.990686-15.932261 11.10923-1.33672 1.083827-2.745696 2.113463-4.10048 3.179226-8.074513 6.358453-13.945244 14.414903-18.190234 23.735817-0.867062 1.914762-1.174146 3.829523-1.138018 5.888795 0.180638 10.260231 0.307084 20.502399 0.451594 30.762631 0 0.578041-0.018064 1.156082 0.018064 1.734123 0.343212 5.81654 3.504375 8.34547 9.230596 7.243579 6.159752-1.174146 11.867909-3.486311 17.232853-6.755856 5.184307-3.161163 10.603443-4.371437 16.528366-2.023145 6.322326 2.510866 9.700254 9.718318 7.099068 16.004516-1.210274 2.926334-2.799887 5.690093-3.685012 8.760937-0.289021 0.993508-0.903189 1.806379-1.661869 2.492803-13.005927 11.867909-24.964155 24.837708-37.572678 37.10302-7.767429 7.550663-15.570985 15.065199-23.32035 22.615862-2.474739 2.420548-4.841095 4.949478-7.333898 7.351962-7.767429 7.514536-15.661304 14.902625-23.248095 22.615862-4.082416 4.154671-8.706746 7.948067-13.313011 11.615016-1.589613 1.264465-3.233418 2.456675-4.552075 3.974033-5.942986 6.900367-13.240756 12.319503-19.942422 18.388936-3.847587 3.486311-7.424217 7.261643-11.055038 10.982783-4.660457 4.76884-10.224104 8.435789-15.390347 12.572396-5.635902 4.515947-10.621507 9.736382-16.239345 14.270393-4.064352 3.269546-8.34547 6.141688-12.626588 9.031893-0.722552 0.487722-1.734124 0.776743-2.113463 1.445103-1.228338 2.095399-3.088908 2.221846-5.184307 2.294101-2.203782 0.072255-3.43212-1.246401-5.130116-2.348292-5.762348-3.757268-8.760937-9.357042-11.705334-15.173582-1.481231-2.926334-3.739204-5.491391-3.594694-9.086085 0.018064-0.632233-0.469658-1.390912-0.903189-1.932825-3.883714-4.895286-3.685013-10.422806-2.366357-16.02258 0.867062-3.685013 3.161163-6.322326 6.773921-7.911939 4.353373-1.914762 8.977703-3.179227 13.132374-5.617838 5.455264-3.215354 9.194468-7.695174 11.524696-13.565905 2.872142-7.207451 3.793395-14.487158 1.86057-22.055884-0.433531-1.71606-0.234829-3.43212 0.162574-5.14818 4.263054-18.298617 5.4372-36.813999 3.937906-55.528083-0.361276-4.461756-0.722552-8.923511-0.162574-13.421395 0.162574-1.282529 0.343212-2.745696-0.505786-3.793395-2.817951-3.43212-3.19729-7.713237-3.974033-11.759526-1.679932-8.797065-4.046288-17.413491-5.81654-26.192492-2.330229-11.54276-5.906859-22.850692-9.01383-34.248942-0.415467-1.517358-1.065763-3.05278-1.968953-4.317245-2.23991-3.161163-2.294101-6.755857-2.420548-10.368614-0.072255-2.276037 0.885126-3.901778 3.161163-4.588202 1.372848-0.415467 2.799887-1.156082 4.172735-1.101891 7.767429 0.289021 15.570985-1.029636 23.338414 0.578041 3.106971 0.632233 5.635902 1.788315 7.749365 4.263054 2.781823 3.269546 6.521027 5.726221 7.948067 10.097657 0.451595 1.372848 1.119955 2.637313 1.246401 4.118544 0.216765 2.673441 1.264465 4.859159 3.269546 6.828111 2.366356 2.312165 2.962461 5.509455 3.016652 8.779001 0.108383 6.502964 0.397403 13.005927 0.397403 19.490827-0.054191 13.186565 0.776743 26.318939 0.415468 36.380469z m21.495907-278.760373c0 1.156082-0.036128 3.034716 0 4.913351 0.162574 5.924922 0.252893 11.849845 2.510866 17.485746 2.817951 6.990686 7.839684 10.8744 15.408411 11.289867 3.179227 0.180638 6.358453 0.469658 9.519617 0.307085 6.322326-0.325148 12.626588-0.596105 18.804403-2.52893 7.67711-2.38442 14.541349-6.304262 21.495907-10.115722 6.141688-3.377928 11.39825-7.839684 16.221281-12.87948 2.601185-2.727632 4.877223-5.744285 6.087497-9.375106 1.553486-4.660457 2.962461-9.375106 3.43212-14.288456 0.397403-4.190799 1.318657-8.237087 2.691504-12.229185 3.775332-11.018911 6.123624-22.254587 4.678521-34.014112-0.270957-2.149591-0.072255-4.353373 0.614169-6.430708 2.691504-8.34547 1.282529-16.853514 1.138018-25.325431-0.018064-0.704488-0.234829-1.445103-0.578041-2.077335-4.407564-8.291279-12.626588-11.54276-21.586226-7.875812-2.294101 0.939317-4.497883 1.878634-6.936495 2.221846-2.294101 0.325148-4.479819 1.0477-6.647474 1.86057-8.760937 3.305673-17.3593 6.972622-25.921535 10.766018-5.924922 2.619249-11.380186 6.10556-17.232853 8.887383-5.274626 2.52893-10.187976 6.051369-14.758115 9.736382-5.166243 4.154671-8.399661 9.212532-8.128705 16.69094 0.397403 10.910528 1.481231 21.947502-1.19221 32.785775-0.234829 0.957381-0.216765 2.023144-0.090318 3.016652 0.704488 5.473328 0.180638 10.982783 0.469658 17.178662z" p-id="1669"></path></svg>