<?xml version="1.0" standalone="no"?><!DOCTYPE svg PUBLIC "-//W3C//DTD SVG 1.1//EN" "http://www.w3.org/Graphics/SVG/1.1/DTD/svg11.dtd"><svg t="1725257613207" class="icon" viewBox="0 0 1024 1024" version="1.1" xmlns="http://www.w3.org/2000/svg" p-id="5608" id="mx_n_1725257613208" xmlns:xlink="http://www.w3.org/1999/xlink" width="200" height="200"><path d="M307.074236 416.688237c0 0 19.697621 3.175319 37.677111 17.59882 16.726963 13.418614 44.98454 20.973684 48.876174 21.971407-2.705622-0.719384-17.141402-5.110391-25.934672-19.779486-9.734712-16.232706 57.284681-57.840336 57.284681-57.840336s-22.784936 12.876262-55.683207 23.75196C336.399121 413.257092 307.074236 416.688237 307.074236 416.688237z" p-id="5609"></path><path d="M393.627521 456.257441c0.292666 0.075725 0.49221 0.122797 0.49221 0.122797S393.928373 456.334189 393.627521 456.257441z" p-id="5610"></path><path d="M375.332852 264.250406c-48.354288-66.419735-65.603137-108.739587-14.709003-199.22953-121.516588 73.448826-107.302865 141.473105-50.072419 246.412133C341.321224 318.391491 365.276822 295.497061 375.332852 264.250406z" p-id="5611"></path><path d="M470.563774 372.092553c20.884656 20.342304 66.630536 3.411703 94.083795-23.030529-83.35136-86.515423-104.924701-180.861184-41.057091-261.081227C398.108578 162.109098 382.968763 286.772352 470.563774 372.092553z" p-id="5612"></path><path d="M552.623721 295.898197c4.862751 16.45067 16.420995 30.863938 29.571503 44.804439 86.108147-32.134885 223.219921-11.06194 315.54056 46.636157C808.442084 294.392914 639.248637 256.277828 552.623721 295.898197z" p-id="5613"></path><path d="M544.967344 287.581788c54.344722-30.482245 215.877699-25.917276 303.326377 0.995677-51.093678-43.545772-262.628466-77.527724-325.150428-51.467185C526.388197 255.892041 533.846052 274.054703 544.967344 287.581788z" p-id="5614"></path><path d="M247.663124 630.161167c1.965771 9.630335-2.622734 19.618826-10.603499 29.776164 0 0 66.037019-37.634132 138.392954-14.131859 72.376401 23.503297 62.545498 82.408895 62.545498 82.408895 35.238572-16.101723 53.422723-54.011124 66.780963-98.095155 9.682523 13.8351 12.71151 29.976732 8.667404 48.565089 27.142174-23.619954 33.748638-62.947657 27.857465-111.842251 14.893198 11.247158 21.538549 26.351158 23.286356 43.726897 15.33015-32.102139 6.646374-67.841108-8.827039-104.615663 0 0 64.021106-0.12075 138.053216 48.102554 74.033134 48.218188 104.259552 100.567463 104.259552 100.567463s5.315052-52.070936-24.969695-94.043886c-30.281677-41.977044-91.276866-78.923514-91.276866-78.923514s128.001279 35.722596 172.73818 116.78482c44.748157 81.057107-24.197098 134.207631-24.197098 134.207631 55.613622-3.194762 90.352821-144.706753 42.419112-192.658881 57.512878 44.924165 61.505819 136.050606 67.475787 177.942715 18.863626-11.398608 39.740096-175.73442-64.560388-240.328577-104.307647-64.60439-214.641545-70.568219-214.641545-70.568219s69.352531-26.600845 164.993798 15.034415c95.649454 41.637306 128.793318 96.818069 128.793318 96.818069s-26.806529-94.006024-138.105405-144.054907c-111.274316-50.045813-209.312166-30.335912-233.335303-13.600763-24.02109 16.734126-68.388577 50.209542-117.927853 27.841092-49.53416-22.364357-66.366523-112.86965-66.366523-112.86965s-18.977213 54.921867-66.345034 63.895239c-47.362704 8.974395-81.004919-8.074909-83.734076 2.737344-2.732228 10.806113 38.743396 44.856627 31.251771 65.586764-7.491625 20.735253-48.114834 31.046087-102.857623 27.209712-54.747905-3.836375-88.26323-16.028045-93.792153-9.634428-5.523807 6.387477 3.25616 21.413706-1.431605 46.562479-4.689812 25.152866-19.754926 33.224706-18.736736 39.027875 0.986467 5.628184 16.311501 23.163559 17.058514 36.2189 30.974455-9.155521 59.753919-24.942065 85.489046-49.962925 9.778714 16.570397 11.287067 41.742706 6.652514 73.27998 31.055297-12.615319 56.494689-29.310559 74.04132-51.748594 2.787486 17.893532 0.787946 36.898375-6.516414 57.151651 35.609009-12.177344 61.789275-27.755134 76.842109-47.328935 4.024663 13.81975 4.2897 27.795043 0.782829 41.928948 28.112268-17.785062 61.383022-21.192671 98.156554-14.853289-54.31914 5.239328-91.236957 24.948205-121.343649 50.345642 1.086751-13.471826 0.156566-25.659403-3.64604-35.978423-19.73139 19.908422-43.87016 31.538297-69.665663 40.055275 3.083222-13.517875 3.651157-27.730575-4.530177-44.357254-18.358113 17.426905-39.752376 30.903847-64.643276 39.839357 0.889253-24.24724 0.576121-47.900963-9.82067-66.658166-12.023848 16.775059-29.218462 27.747971-50.724265 33.905204 0 0 23.413246 22.989597 20.183691 52.775994-3.227508 29.785374-49.056276 58.619072-49.056276 58.619072 52.376904-7.077186 92.820012-24.668843 117.851105-55.868425 2.628874 15.994276-1.834788 30.714536-14.916734 43.891649C199.704856 666.573471 227.633952 653.060713 247.663124 630.161167zM367.692848 436.477956c8.792247 14.669094 23.229051 19.060101 25.934672 19.779486 0.300852 0.075725 0.49221 0.122797 0.49221 0.122797s-0.199545-0.046049-0.49221-0.122797c-3.891633-0.997724-32.149211-8.55177-48.876174-21.971407-17.97949-14.424524-37.677111-17.59882-37.677111-17.59882s29.325909-3.430122 62.22111-14.297634c32.898271-10.875698 55.683207-23.75196 55.683207-23.75196S357.958136 420.24525 367.692848 436.477956z" p-id="5615"></path><path d="M961.664791 744.770438c-175.155229-11.987009-124.352169 95.324042-203.227588 110.76164-85.890182 16.812921-136.879484-5.117554-136.879484-5.117554s185.435363-1.65264 163.201989-134.245494c-22.23235-132.582621-204.260104-196.137099-204.260104-196.137099 15.884782 43.223431 10.011005 79.944773-16.543791 110.481254 41.34157 14.59337 61.247946 34.96228 65.934688 59.429531 11.857049-17.511839 15.176654-37.499056 3.872191-61.730946 43.703361 43.239803 43.234687 78.507028 0.563842 106.154715 54.027497-6.619768 80.293721-32.347732 72.436776-81.56569 0 0 28.055986 37.70781 3.78214 74.868151C686.263417 764.822123 585.037968 763.256464 585.037968 763.256464c46.325072 13.213953 91.020016 17.173125 132.719744 4.160763 0 0-5.805216 28.860305-84.033905 40.894386-78.235852 12.034081-253.447363-45.609781-374.244566 4.779863-120.79618 50.383504-159.288866 149.050688-159.288866 149.050688s73.600275-66.711378 127.693264-92.196819c54.104245-25.480324 146.520051-21.208021 146.520051-21.208021C310.519708 858.850659 269.535271 896.756991 252.586251 938.405553c0 0 60.367903-39.930431 129.626289-52.269457 69.254294-12.354376 155.033959 7.992021 155.033959 7.992021-50.206472 0.624217-116.41643 21.611204-145.107889 58.094116 22.600741-7.665587 112.287389-27.243481 209.236442-10.56359 83.677794 14.394848 124.263142 18.558681 171.495886 18.429745 95.1685-0.261966 174.964894-175.716001 153.114237-145.58475-84.596723 116.65793-199.889563 93.189426-199.889563 93.189426s74.974575-7.30129 92.420923-20.070104C890.174574 835.183633 809.566698 762.641457 961.664791 744.770438z" p-id="5616"></path></svg>